/* XPM */
static char *result[] = {
/* columns rows colors chars-per-pixel */
"64 64 256 2 ",
"   c black",
".  c blue",
"X  c green",
"o  c red",
"O  c cyan",
"+  c yellow",
"@  c magenta",
"#  c white",
"$  c #7B7B7B",
"%  c #7B7B7B",
"&  c #7B7B7B",
"*  c #7B7B7B",
"=  c #7B7B7B",
"-  c #7B7B7B",
";  c #7B7B7B",
":  c #7B7B7B",
">  c #7B7B7B",
",  c #7B7B7B",
"<  c #7B7B7B",
"1  c #7B7B7B",
"2  c #7B7B7B",
"3  c #7B7B7B",
"4  c #7B7B7B",
"5  c #7B7B7B",
"6  c #7B7B7B",
"7  c #7B7B7B",
"8  c #7B7B7B",
"9  c #7B7B7B",
"0  c #7B7B7B",
"q  c #7B7B7B",
"w  c #7B7B7B",
"e  c #7B7B7B",
"r  c #7B7B7B",
"t  c #7B7B7B",
"y  c #7B7B7B",
"u  c #7B7B7B",
"i  c #7B7B7B",
"p  c #7B7B7B",
"a  c #7B7B7B",
"s  c #7B7B7B",
"d  c #7B7B7B",
"f  c #7B7B7B",
"g  c #7B7B7B",
"h  c #7B7B7B",
"j  c #7B7B7B",
"k  c #7B7B7B",
"l  c #7B7B7B",
"z  c #7B7B7B",
"x  c #7B7B7B",
"c  c #7B7B7B",
"v  c #7B7B7B",
"b  c #7B7B7B",
"n  c #7B7B7B",
"m  c #7B7B7B",
"M  c #7B7B7B",
"N  c #7B7B7B",
"B  c #7B7B7B",
"V  c #7B7B7B",
"C  c #7B7B7B",
"Z  c #7B7B7B",
"A  c #7B7B7B",
"S  c #7B7B7B",
"D  c #7B7B7B",
"F  c #7B7B7B",
"G  c #7B7B7B",
"H  c #7B7B7B",
"J  c #7B7B7B",
"K  c #7B7B7B",
"L  c #7B7B7B",
"P  c #7B7B7B",
"I  c #7B7B7B",
"U  c #7B7B7B",
"Y  c #7B7B7B",
"T  c #7B7B7B",
"R  c #7B7B7B",
"E  c #7B7B7B",
"W  c #7B7B7B",
"Q  c #7B7B7B",
"!  c #7B7B7B",
"~  c #7B7B7B",
"^  c #7B7B7B",
"/  c #7B7B7B",
"(  c #7B7B7B",
")  c #7B7B7B",
"_  c #7B7B7B",
"`  c #7B7B7B",
"'  c #7B7B7B",
"]  c #7B7B7B",
"[  c #7B7B7B",
"{  c #7B7B7B",
"}  c #7B7B7B",
"|  c #7B7B7B",
" . c #7B7B7B",
".. c #7B7B7B",
"X. c #7B7B7B",
"o. c #7B7B7B",
"O. c #7B7B7B",
"+. c #7B7B7B",
"@. c #7B7B7B",
"#. c #7B7B7B",
"$. c #7B7B7B",
"%. c #7B7B7B",
"&. c #7B7B7B",
"*. c #7B7B7B",
"=. c #7B7B7B",
"-. c #7B7B7B",
";. c #7B7B7B",
":. c #7B7B7B",
">. c #7B7B7B",
",. c #7B7B7B",
"<. c #7B7B7B",
"1. c #7B7B7B",
"2. c #7B7B7B",
"3. c #7B7B7B",
"4. c #7B7B7B",
"5. c #7B7B7B",
"6. c #7B7B7B",
"7. c #7B7B7B",
"8. c #7B7B7B",
"9. c #7B7B7B",
"0. c #7B7B7B",
"q. c #7B7B7B",
"w. c #7B7B7B",
"e. c #7B7B7B",
"r. c #7B7B7B",
"t. c #7B7B7B",
"y. c #7B7B7B",
"u. c #7B7B7B",
"i. c #7B7B7B",
"p. c #7B7B7B",
"a. c #7B7B7B",
"s. c #7B7B7B",
"d. c #7B7B7B",
"f. c #7B7B7B",
"g. c #7B7B7B",
"h. c #7B7B7B",
"j. c #7B7B7B",
"k. c #7B7B7B",
"l. c #7B7B7B",
"z. c #7B7B7B",
"x. c #7B7B7B",
"c. c #7B7B7B",
"v. c #7B7B7B",
"b. c #7B7B7B",
"n. c #7B7B7B",
"m. c #7B7B7B",
"M. c #7B7B7B",
"N. c #7B7B7B",
"B. c #7B7B7B",
"V. c #7B7B7B",
"C. c #7B7B7B",
"Z. c #7B7B7B",
"A. c #7B7B7B",
"S. c #7B7B7B",
"D. c #7B7B7B",
"F. c #7B7B7B",
"G. c #7B7B7B",
"H. c #7B7B7B",
"J. c #7B7B7B",
"K. c #7B7B7B",
"L. c #7B7B7B",
"P. c #7B7B7B",
"I. c #7B7B7B",
"U. c #7B7B7B",
"Y. c #7B7B7B",
"T. c #7B7B7B",
"R. c #7B7B7B",
"E. c #7B7B7B",
"W. c #7B7B7B",
"Q. c #7B7B7B",
"!. c #7B7B7B",
"~. c #7B7B7B",
"^. c #7B7B7B",
"/. c #7B7B7B",
"(. c #7B7B7B",
"). c #7B7B7B",
"_. c #7B7B7B",
"`. c #7B7B7B",
"'. c #7B7B7B",
"]. c #7B7B7B",
"[. c #7B7B7B",
"{. c #7B7B7B",
"}. c #7B7B7B",
"|. c #7B7B7B",
" X c #7B7B7B",
".X c #7B7B7B",
"XX c #7B7B7B",
"oX c #7B7B7B",
"OX c #7B7B7B",
"+X c #7B7B7B",
"@X c #7B7B7B",
"#X c #7B7B7B",
"$X c #7B7B7B",
"%X c #7B7B7B",
"&X c #7B7B7B",
"*X c #7B7B7B",
"=X c #7B7B7B",
"-X c #7B7B7B",
";X c #7B7B7B",
":X c #7B7B7B",
">X c #7B7B7B",
",X c #7B7B7B",
"<X c #7B7B7B",
"1X c #7B7B7B",
"2X c #7B7B7B",
"3X c #7B7B7B",
"4X c #7B7B7B",
"5X c #7B7B7B",
"6X c #7B7B7B",
"7X c #7B7B7B",
"8X c #7B7B7B",
"9X c #7B7B7B",
"0X c #7B7B7B",
"qX c #7B7B7B",
"wX c #7B7B7B",
"eX c #7B7B7B",
"rX c #7B7B7B",
"tX c #7B7B7B",
"yX c #7B7B7B",
"uX c #7B7B7B",
"iX c #7B7B7B",
"pX c #7B7B7B",
"aX c #7B7B7B",
"sX c #7B7B7B",
"dX c #7B7B7B",
"fX c #7B7B7B",
"gX c #7B7B7B",
"hX c #7B7B7B",
"jX c #7B7B7B",
"kX c #7B7B7B",
"lX c #7B7B7B",
"zX c #7B7B7B",
"xX c #7B7B7B",
"cX c #DE7B7B",
"vX c #EE9494",
"bX c #E68B8B",
"nX c #FFB4B4",
"mX c #F6A4A4",
"MX c #410000",
"NX c #8B2020",
"BX c #BD5252",
"VX c #6A0808",
"CX c #9C3131",
"ZX c #7B1818",
"AX c #620808",
"SX c #A43939",
"DX c #8B2929",
"FX c #CD6A6A",
"GX c #831818",
"HX c #520000",
"JX c #731010",
"KX c #4A0000",
"LX c #AC4141",
"PX c #D57373",
"IX c #BD5A5A",
"UX c #DE8383",
/* pixels */
"JXVXVXJXNXLXCXCXCXCXNXNXNXJXAXZXJXZXDXLXNXAXZXBXNXAXMXAXZXNXJXVXCXPXCXZXZXJXAXHXZXJXNXJXLXBXBXLXNXNXJXHXAXZXZXZXDXLXIXBXLXLXNXJX",
"VXVXDXBXCXZXNXZXNXNXJXVXHXAXCXZXDXNXZXNXLXLXCXZXAXHXAXNXLXNXJXBXFXBXIXLXZXHXHXJXZXDXJXNXLXBXLXZXCXJXAXHXJXNXLXBXLXLXLXBXLXCXJXJX",
"NXLXBXCXDXBXDXDXJXJXHXMXHXZXIXcXCXAXZXLXBXBXDXAXMXJXDXLXDXZXCXLXDXLXIXLXJXHXVXZXDXJXAXJXZXLXNXNXNXJXHXAXDXLXBXDXNXNXCXCXNXJXJXZX",
"ZXNXZXLXFXIXCXJXHXHXMXMXJXbXmXPXIXNXNXCXBXLXAXMXJXLXBXCXZXCXBXLXLXLXDXVXHXHXVXAXJXZXDXNXZXLXLXNXJXAXHXJXCXBXBXZXJXJXZXNXZXJXZXNX",
"CXBXLXFXBXCXJXMXMXHXHXNXcXFXLXBXBXNXDXLXCXAXMXJXCXCXDXNXDXDXCXLXDXJXHXHXHXVXAXJXZXCXIXCXNXNXNXJXAXHXAXZXNXCXCXZXAXHXAXNXNXJXZXCX",
"LXLXLXLXNXJXHXMXAXZXCXFXIXCXLXPXNXAXNXNXAXMXMXJXZXCXLXNXZXNXLXNXJXHXHXHXAXJXNXLXCXBXFXLXZXNXJXAXHXHXAXHXJXNXZXAXHXVXNXBXBXCXCXBX",
"LXLXDXJXAXMXMXJXCXNXLXBXDXLXmXLXMXDXIXJXHXHXHXZXBXBXPXLXAXZXFXLXHXMXMXHXAXNXLXLXLXBXFXCXJXAXAXHXHXAXHXHXJXZXJXJXZXDXLXBXBXBXIXIX",
"BXNXJXAXMXMXJXCXLXJXCXPXIXPXDXMXVXBXZXHXAXHXHXBXFXPXbXNXHXNXPXNXMXMXAXAXAXNXCXLXLXBXFXNXHXHXHXHXAXAXJXJXZXDXNXZXZXNXCXBXFXFXFXPX",
"NXJXHXMXMXAXNXLXLXJXNXBXLXDXLXNXZXNXHXHXJXHXJXFXIXPXmXJXMXZXBXVXMXHXAXAXJXZXNXCXCXCXCXNXHXMXMXAXJXZXCXBXFXFXFXBXCXNXDXBXFXIXFXLX",
"AXMXMXHXMXMXLXmXPXLXLXDXNXLXBXDXZXAXMXHXZXJXZXBXPXvXPXHXMXLXCXHXMXHXAXNXCXLXFXPXFXDXZXNXAXMXHXNXLXBXFXPXFXFXFXIXBXLXLXBXBXLXNXJX",
"MXMXVXVXMXZXPXBXLXIXCXDXDXCXLXDXZXHXMXAXCXDXZXZXCXPXDXAXCXFXNXMXMXAXZXCXBXIXFXcXvXNXJXLXCXAXJXCXIXFXFXFXFXPXIXBXIXBXLXLXLXDXJXHX",
"MXAXNXVXNXFXLXCXBXCXZXNXCXCXCXZXHXMXMXJXLXBXDXZXJXJXDXCXZXDXZXMXMXAXZXLXLXLXIXBXDXDXPXbXCXCXIXIXFXFXFXIXIXBXLXIXIXCXDXDXJXHXMXMX",
"AXDXNXJXDXLXBXcXCXMXZXDXNXNXZXAXMXMXHXJXCXLXCXCXLXFXCXJXCXIXNXHXHXAXJXNXDXLXLXLXLXBXIXLXLXIXIXBXIXFXBXLXLXLXLXLXCXCXDXJXHXHXMXAX",
"NXLXJXVXZXBXbXCXMXAXIXLXNXJXHXMXMXMXHXJXNXZXNXFXIXPXIXAXAXCXCXJXAXAXAXJXNXCXCXCXBXIXBXLXLXBXBXBXBXBXBXCXBXIXFXLXCXNXJXHXHXHXAXJX",
"LXNXZXZXJXZXDXNXJXZXLXDXJXHXHXMXMXMXJXJXJXAXZXBXLXLXFXLXAXAXCXLXNXJXAXAXZXZXZXDXLXLXLXLXDXDXBXBXBXCXCXBXIXLXNXZXJXAXHXHXHXAXJXNX",
"NXLXLXBXNXJXNXCXZXZXNXJXAXHXHXMXMXMXAXJXAXMXHXLXLXLXFXBXJXZXLXBXLXNXNXDXZXHXAXJXNXDXDXCXZXZXCXLXDXDXLXDXDXNXJXAXHXHXHXHXHXJXNXLX",
"DXLXPXBXNXJXDXLXNXZXJXHXMXMXMXMXMXMXAXZXJXMXMXNXLXBXBXZXAXZXBXCXZXAXZXCXCXJXJXJXZXZXZXZXZXNXNXNXNXNXNXNXZXJXZXJXAXHXHXHXAXJXDXNX",
"NXBXIXNXJXZXCXNXZXJXHXMXMXMXMXMXMXMXHXAXJXAXAXAXZXBXBXAXAXCXUXcXPXLXZXLXBXCXCXCXDXNXCXCXNXDXCXDXCXDXDXNXNXNXZXZXZXJXHXHXAXJXNXNX",
"LXBXZXJXZXZXNXJXAXHXMXHXAXAXAXAXHXHXAXAXAXHXAXAXAXNXDXJXDXBXIXLXLXPXIXDXDXCXCXCXNXJXZXZXNXLXCXZXNXNXDXNXNXDXDXDXDXNXZXJXVXNXJXJX",
"DXAXZXLXAXAXJXAXHXHXVXZXNXCXCXCXCXZXJXZXZXJXHXMXAXJXJXJXCXIXBXLXLXIXIXNXAXZXPXcXPXFXBXDXNXLXBXDXZXDXCXNXNXNXZXDXLXDXNXZXJXVXVXJX",
"VXHXJXZXAXAXAXVXZXZXNXNXNXCXLXNXZXJXJXZXCXLXNXJXHXHXAXZXZXZXLXBXLXIXLXAXHXBXPXBXLXFXbXIXJXNXCXNXDXDXCXCXZXJXZXCXNXZXDXDXZXNXJXVX",
"JXJXVXAXAXJXZXZXNXIXBXJXJXZXCXCXLXCXNXZXNXCXCXZXZXJXHXAXZXHXMXNXLXLXCXJXZXFXIXLXLXBXPXFXJXAXJXNXBXFXBXBXFXCXNXLXCXJXNXDXNXZXDXVX",
"JXAXJXAXJXJXLXBXBXPXBXZXJXNXCXLXCXCXBXCXJXZXCXCXCXZXVXHXAXNXZXZXLXCXZXJXZXNXLXBXLXIXFXCXZXAXHXNXBXBXBXBXBXBXCXDXBXLXJXJXDXNXZXJX",
"JXVXVXAXZXDXBXLXLXBXZXNXZXZXCXBXCXDXBXCXAXAXNXCXCXDXNXJXHXAXJXNXNXCXCXNXZXJXMXHXZXCXDXCXCXJXJXCXPXBXLXLXBXLXZXJXNXCXCXCXLXCXNXZX",
"ZXJXAXVXZXNXBXIXBXZXDXLXCXJXJXNXCXLXLXJXHXJXDXNXNXCXCXZXAXHXAXJXNXNXLXLXDXDXJXMXJXLXCXDXCXDXNXNXBXBXLXBXFXCXJXZXZXNXDXCXCXJXAXZX",
"DXJXVXAXAXJXZXZXAXJXCXLXBXZXHXAXZXNXNXJXZXBXFXCXZXZXNXNXJXJXAXAXAXJXJXJXNXCXNXZXZXCXLXLXCXNXCXCXJXJXZXCXLXCXZXJXCXBXFXIXLXLXJXAX",
"ZXNXJXVXNXDXNXNXDXZXZXNXNXZXJXNXNXCXCXZXNXLXCXLXIXCXAXZXCXZXZXAXHXHXHXMXHXAXJXDXNXNXNXCXCXNXCXBXDXJXVXDXDXCXBXNXNXBXBXLXCXBXLXJX",
"ZXNXJXJXNXJXNXCXNXZXJXAXAXJXZXZXCXCXAXHXBXBXNXNXIXBXJXJXLXNXZXJXAXHXMXMXMXMXHXAXVXJXDXNXNXNXDXCXLXLXCXDXCXCXCXCXNXLXBXCXNXLXBXZX",
"NXNXJXAXJXVXJXJXVXAXHXMXMXJXZXNXDXCXHXHXBXIXDXNXLXCXVXNXLXZXNXJXAXVXMXMXMXMXMXMXMXMXAXVXJXZXNXNXDXDXDXDXCXBXLXJXAXNXBXLXLXBXCXZX",
"NXDXZXJXAXAXAXAXHXMXMXMXAXJXNXCXLXBXNXJXNXLXLXLXLXJXAXCXLXNXNXVXVXHXHXMXMXMXMXMXMXMXMXMXMXMXHXAXJXZXDXDXCXDXCXLXJXHXNXcXbXCXAXJX",
"ZXNXZXJXHXHXHXMXMXHXAXJXJXZXCXLXCXLXBXLXJXAXZXLXCXJXZXCXDXZXJXAXJXJXJXJXVXAXHXAXHXMXMXMXMXMXMXMXHXAXJXZXDXDXLXLXDXVXJXBXCXZXNXZX",
"NXNXJXJXHXHXMXHXHXVXZXZXNXNXNXZXZXCXLXLXJXAXZXNXJXCXLXNXJXJXNXNXDXNXDXNXNXNXNXNXDXZXJXAXHXMXMXMXMXMXMXHXJXZXNXCXZXZXLXFXCXZXZXZX",
"CXNXJXJXHXHXAXAXAXJXNXLXCXNXLXBXLXFXFXCXZXNXNXNXCXCXDXJXNXDXLXLXLXDXDXLXCXLXDXDXLXCXDXNXNXJXAXHXMXMXMXMXHXJXNXBXNXZXLXBXLXBXBXBX",
"BXZXJXJXHXAXAXAXAXNXDXZXZXLXIXBXBXLXBXBXNXJXNXCXNXJXZXNXNXDXCXCXCXCXNXNXCXCXNXNXCXLXLXDXCXNXNXJXAXHXMXMXHXHXJXDXLXNXNXJXCXPXIXIX",
"BXZXAXZXAXHXAXAXAXZXAXZXNXNXCXLXLXLXLXNXZXCXCXJXHXHXJXDXNXNXNXZXZXNXZXCXLXNXNXCXLXDXDXCXLXLXCXDXNXJXAXHXHXHXJXDXBXLXHXAXIXPXLXIX",
"CXVXAXNXAXJXJXJXVXJXZXCXZXJXCXLXCXCXJXAXZXZXAXHXAXJXZXCXCXNXNXNXNXCXCXZXZXJXHXJXDXDXDXCXCXDXLXLXCXDXZXVXAXAXZXDXLXCXMXNXPXBXLXFX",
"NXMXAXNXAXAXJXJXVXJXZXNXJXJXZXNXJXAXAXHXMXAXJXJXAXJXZXZXZXNXCXNXZXZXDXCXLXFXIXZXJXNXCXCXDXNXCXLXLXDXCXDXNXNXDXLXLXNXAXCXPXBXLXFX",
"JXHXJXVXHXJXJXJXVXJXVXNXCXNXZXJXJXAXMXMXJXZXJXHXJXCXBXLXLXLXLXNXZXNXBXBXLXLXbXbXCXZXCXCXNXNXNXCXDXNXCXLXCXLXDXLXCXJXJXBXFXLXIXIX",
"NXJXJXHXHXVXAXAXAXAXVXVXAXAXHXHXMXMXHXJXDXZXJXNXBXBXLXCXIXBXCXDXZXNXBXLXCXLXFXPXBXZXJXJXZXJXJXJXNXDXCXLXDXCXDXCXZXZXZXZXNXCXCXNX",
"NXJXAXMXJXAXMXMXHXHXHXHXHXMXMXMXMXJXNXCXNXAXZXBXLXCXCXLXIXFXCXJXZXCXBXBXCXLXFXBXNXZXNXNXBXFXBXLXNXZXCXCXNXJXZXDXCXCXNXNXZXZXNXCX",
"ZXJXHXHXHXMXHXHXHXHXHXMXMXMXMXMXAXCXFXCXJXJXZXCXIXLXLXLXBXLXZXZXZXJXZXDXCXLXBXCXJXZXNXCXBXCXCXBXLXJXZXNXCXLXLXIXFXLXNXJXJXNXNXNX",
"ZXAXHXAXHXMXHXHXHXAXHXHXMXMXHXJXNXCXCXNXCXCXJXNXFXFXLXZXAXAXZXCXDXJXVXAXHXAXNXDXNXJXJXLXLXNXCXBXLXZXJXCXBXCXCXCXBXcXLXJXNXCXZXJX",
"JXAXAXVXVXVXVXAXAXAXHXMXMXAXZXZXZXNXDXDXLXCXJXNXCXNXAXHXAXJXJXJXZXZXJXZXZXZXNXNXDXNXZXNXCXLXBXBXDXJXZXBXCXDXCXCXBXFXNXNXLXNXNXJX",
"JXJXZXZXNXZXJXJXJXHXMXMXHXCXBXJXHXBXPXBXDXZXJXDXDXJXJXNXJXJXAXAXAXAXHXAXJXJXJXJXZXNXCXZXAXZXDXCXNXZXNXLXLXLXLXBXIXNXJXLXLXNXNXJX",
"ZXZXNXCXCXZXJXJXJXHXMXMXJXCXAXMXLXFXBXPXBXJXZXBXLXJXAXHXMXAXJXJXJXJXJXJXAXVXJXZXZXZXDXCXJXHXJXNXLXCXZXJXZXDXLXCXJXAXLXLXDXNXJXJX",
"NXNXNXNXNXZXAXAXHXMXAXNXLXZXHXNXIXLXIXPXNXAXNXLXJXHXHXAXAXZXNXNXDXDXCXCXJXJXDXNXZXZXJXJXZXZXJXNXZXZXLXBXNXZXJXHXJXNXLXCXZXZXAXJX",
"NXNXJXZXNXJXHXHXMXAXNXCXBXZXZXFXBXCXPXBXAXJXNXHXHXAXJXJXJXNXNXNXCXLXBXBXNXJXCXLXLXCXNXNXAXHXVXNXDXDXCXCXZXNXNXZXNXDXNXZXJXAXJXNX",
"DXLXZXJXAXAXMXMXAXDXCXCXCXZXNXLXBXIXFXAXMXNXVXMXZXCXLXCXCXCXNXZXCXBXIXBXDXZXCXBXLXDXNXCXZXMXMXJXDXLXDXZXNXNXZXNXNXNXZXJXHXAXJXNX",
"BXLXZXVXHXMXHXVXZXZXJXCXDXAXJXNXIXUXDXMXHXJXAXJXCXLXLXLXBXIXLXCXBXIXIXBXLXCXBXBXLXNXNXCXNXMXHXJXZXZXZXZXZXZXZXZXJXAXAXMXAXVXNXDX",
"LXDXJXAXHXHXJXCXJXMXJXFXLXNXNXCXIXZXHXHXHXJXDXCXLXBXLXCXBXLXLXIXIXIXIXBXCXLXBXIXLXNXCXLXZXZXLXLXZXAXHXVXAXAXAXAXAXHXMXHXAXJXNXCX",
"NXZXJXAXHXJXCXBXJXHXvXnXFXDXNXNXJXAXJXAXAXDXCXBXPXBXNXZXNXCXIXBXLXBXBXLXDXNXBXPXIXCXCXNXNXLXCXNXNXZXHXMXMXMXMXMXMXMXMXHXJXNXLXLX",
"ZXNXAXHXHXNXbXLXHXDXbXFXPXCXJXAXJXZXAXHXZXCXBXFXcXLXAXAXDXBXPXLXCXBXLXCXDXNXCXBXBXLXCXZXCXBXCXNXCXCXJXMXMXMXMXMXMXMXHXJXZXCXLXCX",
"JXJXMXVXNXIXIXJXJXbXIXLXPXLXAXJXZXAXAXJXNXBXFXPXIXDXJXJXNXBXBXNXZXCXCXNXZXDXCXDXLXBXCXJXNXBXCXNXNXNXZXAXMXMXMXMXMXMXAXJXNXLXBXCX",
"JXAXJXLXPXbXCXZXCXBXBXIXIXZXZXZXAXVXNXNXCXBXIXIXFXPXBXZXZXCXNXAXAXZXZXJXJXNXCXCXNXNXZXJXZXCXCXDXZXJXJXAXMXMXMXMXMXHXJXZXDXBXIXNX",
"AXNXCXLXFXIXNXNXCXLXIXPXCXAXVXAXAXNXLXLXLXFXIXBXFXFXBXZXAXZXAXMXHXAXAXAXAXJXDXDXJXAXNXFXLXNXNXNXZXJXJXJXHXMXMXMXHXHXJXCXBXBXLXJX",
"AXNXBXCXCXNXJXNXLXIXFXBXJXAXAXAXNXBXBXBXBXIXBXBXBXLXDXJXHXAXHXHXAXAXAXAXHXAXJXJXHXAXCXFXBXCXDXCXJXHXAXZXHXMXMXHXAXJXZXLXBXBXCXJX",
"ZXZXDXCXCXNXAXJXLXPXLXJXHXJXJXAXNXBXFXBXBXFXFXBXCXNXJXHXHXAXJXJXNXNXZXJXHXMXAXJXAXJXDXLXBXBXBXLXJXAXJXZXHXMXMXHXJXZXDXLXBXBXZXAX",
"ZXDXPXPXPXIXNXJXZXDXJXJXJXJXZXNXDXBXBXCXBXFXIXCXJXAXHXAXJXZXZXNXLXLXNXZXJXAXHXAXAXZXNXLXBXBXBXCXNXNXLXNXHXMXHXAXJXNXCXLXLXLXZXJX",
"CXFXPXFXPXcXFXZXHXZXNXJXAXJXLXIXDXNXDXBXFXBXCXJXHXHXJXZXZXAXJXBXBXDXDXZXZXNXHXMXAXNXNXDXBXBXBXLXNXNXLXCXAXMXHXJXNXNXNXLXLXLXLXNX",
"FXFXIXLXBXPXCXJXJXZXJXJXJXCXPXbXLXJXZXLXIXDXVXHXAXJXCXLXNXAXHXNXLXNXCXDXJXDXJXMXHXJXZXCXIXFXBXLXCXNXDXNXAXHXAXJXZXNXNXLXBXLXLXLX",
"BXBXDXBXIXDXVXJXZXAXJXNXZXCXPXbXNXHXAXDXZXMXMXJXDXDXDXIXIXNXJXAXHXZXNXNXNXNXNXHXMXHXAXDXBXIXBXBXLXCXCXZXHXAXZXZXZXZXNXLXBXLXCXCX",
"NXDXCXBXJXHXJXJXHXJXCXLXCXCXLXLXCXAXAXJXAXMXAXDXDXNXCXBXNXJXNXJXAXAXZXBXbXCXNXHXMXHXJXDXLXBXBXBXLXLXNXJXAXHXJXJXJXVXNXIXFXBXCXZX",
"NXNXCXJXHXHXAXAXNXIXBXIXBXNXZXLXZXJXAXMXAXJXNXNXNXLXIXNXAXVXHXJXNXJXDXLXBXLXNXAXMXAXZXNXLXBXIXBXBXLXNXJXHXJXZXAXHXAXCXBXBXBXZXJX",
"JXVXAXJXAXAXZXLXLXCXBXFXLXCXLXZXNXAXHXAXZXDXNXAXDXIXNXHXJXAXMXJXLXNXDXNXCXCXNXAXHXVXNXNXCXIXIXLXLXNXDXAXAXJXJXJXJXJXCXLXLXCXNXNX"
};
