/* XPM */
static char *_21e2043c52b4179b39635378c0387aazdpRt5dMaF1yeHna[] = {
/* columns rows colors chars-per-pixel */
"32 32 121 2 ",
"   c #070707",
".  c #0D0C0B",
"X  c #100E0B",
"o  c #13120E",
"O  c #131313",
"+  c #191713",
"@  c #171911",
"#  c #1C1B16",
"$  c #1C1D18",
"%  c #1F2114",
"&  c #1F2118",
"*  c #202417",
"=  c #23241D",
"-  c #222A1E",
";  c #2A2D1E",
":  c #252624",
">  c #282624",
",  c #262C25",
"<  c #2A2924",
"1  c #2C2C2A",
"2  c #312E26",
"3  c #302E2A",
"4  c #2E3126",
"5  c #2F312C",
"6  c #313326",
"7  c #353B26",
"8  c #32332D",
"9  c #3B362E",
"0  c #363A2E",
"q  c #3B3D2E",
"w  c #353633",
"e  c #373933",
"r  c #3A3C34",
"t  c #3C3C3A",
"y  c #41392F",
"u  c #3D422D",
"i  c #3F4333",
"p  c #3F4431",
"a  c #3C4035",
"s  c #3E4035",
"d  c #3F4235",
"f  c #3E4036",
"g  c #3F4336",
"h  c #3E4233",
"j  c #3E4039",
"k  c #3F403B",
"l  c #3F413B",
"z  c #3F403C",
"x  c #3F413A",
"c  c #40462F",
"v  c #40472F",
"b  c #434A2E",
"n  c #434A2F",
"m  c #404532",
"M  c #404633",
"N  c #414633",
"B  c #434632",
"V  c #424735",
"C  c #454434",
"Z  c #414633",
"A  c #4B4631",
"S  c #4B4532",
"D  c #4A4433",
"F  c #4C4736",
"G  c #4B4633",
"H  c #424832",
"J  c #464D33",
"K  c #434935",
"L  c #444834",
"P  c #454B34",
"I  c #454A37",
"U  c #454C34",
"Y  c #474E35",
"T  c #454B34",
"R  c #414338",
"E  c #40423A",
"W  c #44473B",
"Q  c #43433C",
"!  c #40413E",
"~  c #44463D",
"^  c #41433B",
"/  c #444839",
"(  c #464A39",
")  c #484B3B",
"_  c #494D3A",
"`  c #4A4D3C",
"'  c #494C3B",
"]  c #4D5337",
"[  c #4A5037",
"{  c #4C5239",
"}  c #4C513B",
"|  c #4F543F",
" . c #4D523C",
".. c #50553B",
"X. c #50553B",
"o. c #52583F",
"O. c #52583F",
"+. c #484A41",
"@. c #505440",
"#. c #505440",
"$. c #585F43",
"%. c #585E44",
"&. c #585E46",
"*. c #585E44",
"=. c #5A6044",
"-. c #5B6245",
";. c #5C6246",
":. c #5C6247",
">. c #5B6246",
",. c #5D6349",
"<. c #5E634A",
"1. c #5F644A",
"2. c #5E634A",
"3. c #60654B",
"4. c #62674C",
"5. c #61664C",
"6. c #63684D",
"7. c #666B4F",
"8. c #656A4E",
"9. c #696E52",
"0. c #696E52",
/* pixels */
"t t 1 3 t w t t k r a l p u t k t t 1 1 w w t ! t r ~ ] n B l j ",
"t k < 8 t w t t r r r k p H k l t t < 3 t w t t t r /  .J I l l ",
"t t < 3 w w t t e e e r n i k t t r < 1 w w t e e 0 i { U K t k ",
"1 1 < > : : 1 1 > , , < 8 w 1 1 3 8 8 8 5 1 1 1 5 r r q e 8 1 1 ",
"t t 9 9 w w w w e e e r F r 1 9 t < B ,.%.P O.I O.3.X.6 u / 1 e ",
"t t 9 y w w t t t r u r A i 1 r < + 8 @.0.%.6.;.7.%.9 # = / 1 r ",
"t y 9 y w w ! t t t a q A R 1 r + X # B ,.;.=.=.3.{ = o o r 6 r ",
"! ! w y w w t ! r r a q D R 3 w O o X 6 ` u 7 u _ q o o X 8 3 t ",
"t ! w 9 w w w t t j a a C R 6 9 O . @ 7 - o 6 @ $ 6 & X . e 6 r ",
"t t w e w w w t t j a 0 g l 1 r #   % H B q 6.Z u Y 4 . o Q 2 t ",
"t t w 8 w w w t t t e 0 r l , t :   - < u q Y u q 6 4 X = +.2 w ",
"1 1 , & : 1 : 1 , 1 : , 5 8 , 1 1 : = # @ % o % + $ < , 3 r > 1 ",
"w t : , 5 w w t w w e e h u e a w t : : = 7 ; 7 - 4 a Y R i r t ",
"t t 1 1 w w w w e a a a p u a x t t 1 1 8 r K u 6 a i Y / k a k ",
"w w : 1 t w t t e e a x p p g x t t > 1 w w e w e g l ( J p j k ",
"w t 1 1 w w t t t u a x p p g g t t < 1 t w t t r r l ( n u t j ",
"t t < 3 t w t t j r W [ n i ! t t t 1 w t w t t t e r l p u k k ",
"t t < 3 w w t t r a W  .Y / l l t t < 3 t w t t t t a l H p k k ",
"t t < 1 w w t t e e g { U K y ! t t < 3 w w w t e 0 e e p h k j ",
"1 3 6 w 1 1 1 1 5 e q r 0 8 1 1 1 1 > > : 1 1 1 1 : , 1 e w 1 1 ",
"w 1 C 1.=.J | I O.1.{ 6 c W 1 r t t 9 9 w w t w e e e r G g 1 e ",
"1 + 4 | 0.=.6.;.7.=.0 $ = ' < r Q t 9 y w w t t t r q r D p 1 0 ",
"o X $ B 1.;.%.=.3.{ = o X r 3 r t ! t r w w t ! t t u q A R 1 r ",
". o . 6 _ u 7 u _ q o o X 8 3 t t y 9 y w w r y t a a q D R 3 r ",
". X @ 7 = o 6 @ $ 6 * o . r 6 t t t w e w w w t t a a r B R 2 t ",
"O   % H B q 8.p u Y 4   o R 2 9 t a w w w t w t t a r q g k 1 r ",
": . : < a q U u u 4 8 . $ +.1 t t w w w 5 w w t e e e e r R 2 r ",
": = = @ @ % @ % + $ < , w e < 1 1 1 : - : 1 1 1 1 1 1 , 8 8 > < ",
"t t : , = 7 ; 7 ; 4 a I K l r t t w : , 5 w w w w 0 a 0 g u q r ",
"t t < 1 8 q H u 4 a i Y K l a t t t : 5 w w w t e a a e p u a l ",
"w t < < e w e e e a l Y H p ! t t w 1 1 t w t e e a j l H u t k ",
"t t < 1 t w t t t a l ( n p t ! w e , 1 w w t t e u a l p p j k "
};
